<mxfile host="app.diagrams.net" agent="Mozilla/5.0 (Windows NT 10.0; Win64; x64) AppleWebKit/537.36 (KHTML, like Gecko) Chrome/137.0.0.0 Safari/537.36" version="27.1.4">
  <diagram name="PÃ¡gina-1" id="E4dW4gjK1IXQEEIqcCun">
    <mxGraphModel dx="2253" dy="777" grid="1" gridSize="10" guides="1" tooltips="1" connect="1" arrows="1" fold="1" page="1" pageScale="1" pageWidth="827" pageHeight="1169" math="0" shadow="0">
      <root>
        <mxCell id="0" />
        <mxCell id="1" parent="0" />
        <mxCell id="nPHZdOLotvNPG9Pi4xsK-1" value="pet" style="whiteSpace=wrap;html=1;align=center;fillColor=#e1d5e7;strokeColor=#9673a6;" vertex="1" parent="1">
          <mxGeometry x="580" y="380" width="100" height="40" as="geometry" />
        </mxCell>
        <mxCell id="nPHZdOLotvNPG9Pi4xsK-2" value="owner" style="whiteSpace=wrap;html=1;align=center;fillColor=#e1d5e7;strokeColor=#9673a6;" vertex="1" parent="1">
          <mxGeometry x="90" y="380" width="100" height="40" as="geometry" />
        </mxCell>
        <mxCell id="nPHZdOLotvNPG9Pi4xsK-4" style="rounded=0;orthogonalLoop=1;jettySize=auto;html=1;exitX=0;exitY=0.5;exitDx=0;exitDy=0;entryX=1;entryY=0.5;entryDx=0;entryDy=0;endArrow=ERone;startFill=0;endFill=0;" edge="1" parent="1" source="nPHZdOLotvNPG9Pi4xsK-3" target="nPHZdOLotvNPG9Pi4xsK-2">
          <mxGeometry relative="1" as="geometry" />
        </mxCell>
        <mxCell id="nPHZdOLotvNPG9Pi4xsK-5" style="edgeStyle=none;shape=connector;rounded=0;orthogonalLoop=1;jettySize=auto;html=1;exitX=1;exitY=0.5;exitDx=0;exitDy=0;entryX=0;entryY=0.5;entryDx=0;entryDy=0;strokeColor=default;align=center;verticalAlign=middle;fontFamily=Helvetica;fontSize=11;fontColor=default;labelBackgroundColor=default;startFill=0;endArrow=ERoneToMany;endFill=0;" edge="1" parent="1" source="nPHZdOLotvNPG9Pi4xsK-3" target="nPHZdOLotvNPG9Pi4xsK-1">
          <mxGeometry relative="1" as="geometry" />
        </mxCell>
        <mxCell id="nPHZdOLotvNPG9Pi4xsK-3" value="has" style="shape=rhombus;perimeter=rhombusPerimeter;whiteSpace=wrap;html=1;align=center;fillColor=#d5e8d4;strokeColor=#82b366;" vertex="1" parent="1">
          <mxGeometry x="330" y="370" width="120" height="60" as="geometry" />
        </mxCell>
        <mxCell id="nPHZdOLotvNPG9Pi4xsK-20" style="edgeStyle=none;shape=connector;rounded=0;orthogonalLoop=1;jettySize=auto;html=1;exitX=0.5;exitY=1;exitDx=0;exitDy=0;entryX=0.5;entryY=0;entryDx=0;entryDy=0;strokeColor=default;align=center;verticalAlign=middle;fontFamily=Helvetica;fontSize=11;fontColor=default;labelBackgroundColor=default;startFill=0;endArrow=none;" edge="1" parent="1" source="nPHZdOLotvNPG9Pi4xsK-6" target="nPHZdOLotvNPG9Pi4xsK-2">
          <mxGeometry relative="1" as="geometry" />
        </mxCell>
        <mxCell id="nPHZdOLotvNPG9Pi4xsK-6" value="owner_id" style="ellipse;whiteSpace=wrap;html=1;align=center;fontStyle=4;fontFamily=Helvetica;fontSize=11;labelBackgroundColor=none;fillColor=#ffe6cc;strokeColor=#d79b00;" vertex="1" parent="1">
          <mxGeometry x="200" y="230" width="100" height="40" as="geometry" />
        </mxCell>
        <mxCell id="nPHZdOLotvNPG9Pi4xsK-22" style="edgeStyle=none;shape=connector;rounded=0;orthogonalLoop=1;jettySize=auto;html=1;exitX=1;exitY=1;exitDx=0;exitDy=0;entryX=0.5;entryY=0;entryDx=0;entryDy=0;strokeColor=default;align=center;verticalAlign=middle;fontFamily=Helvetica;fontSize=11;fontColor=default;labelBackgroundColor=default;startFill=0;endArrow=none;" edge="1" parent="1" source="nPHZdOLotvNPG9Pi4xsK-7" target="nPHZdOLotvNPG9Pi4xsK-2">
          <mxGeometry relative="1" as="geometry" />
        </mxCell>
        <mxCell id="nPHZdOLotvNPG9Pi4xsK-7" value="last_name" style="ellipse;whiteSpace=wrap;html=1;align=center;fontFamily=Helvetica;fontSize=11;labelBackgroundColor=none;fillColor=#fff2cc;strokeColor=#d6b656;" vertex="1" parent="1">
          <mxGeometry x="-20" y="240" width="100" height="40" as="geometry" />
        </mxCell>
        <mxCell id="nPHZdOLotvNPG9Pi4xsK-23" style="edgeStyle=none;shape=connector;rounded=0;orthogonalLoop=1;jettySize=auto;html=1;exitX=1;exitY=0.5;exitDx=0;exitDy=0;strokeColor=default;align=center;verticalAlign=middle;fontFamily=Helvetica;fontSize=11;fontColor=default;labelBackgroundColor=default;startFill=0;endArrow=none;" edge="1" parent="1" source="nPHZdOLotvNPG9Pi4xsK-8">
          <mxGeometry relative="1" as="geometry">
            <mxPoint x="140" y="380" as="targetPoint" />
          </mxGeometry>
        </mxCell>
        <mxCell id="nPHZdOLotvNPG9Pi4xsK-8" value="description" style="ellipse;whiteSpace=wrap;html=1;align=center;fontFamily=Helvetica;fontSize=11;labelBackgroundColor=none;fillColor=#fff2cc;strokeColor=#d6b656;" vertex="1" parent="1">
          <mxGeometry x="-70" y="290" width="100" height="40" as="geometry" />
        </mxCell>
        <mxCell id="nPHZdOLotvNPG9Pi4xsK-21" style="edgeStyle=none;shape=connector;rounded=0;orthogonalLoop=1;jettySize=auto;html=1;exitX=0.5;exitY=1;exitDx=0;exitDy=0;entryX=0.5;entryY=0;entryDx=0;entryDy=0;strokeColor=default;align=center;verticalAlign=middle;fontFamily=Helvetica;fontSize=11;fontColor=default;labelBackgroundColor=default;startFill=0;endArrow=none;" edge="1" parent="1" source="nPHZdOLotvNPG9Pi4xsK-9" target="nPHZdOLotvNPG9Pi4xsK-2">
          <mxGeometry relative="1" as="geometry" />
        </mxCell>
        <mxCell id="nPHZdOLotvNPG9Pi4xsK-9" value="first_name" style="ellipse;whiteSpace=wrap;html=1;align=center;fontFamily=Helvetica;fontSize=11;labelBackgroundColor=none;fillColor=#fff2cc;strokeColor=#d6b656;" vertex="1" parent="1">
          <mxGeometry x="90" y="220" width="100" height="40" as="geometry" />
        </mxCell>
        <mxCell id="nPHZdOLotvNPG9Pi4xsK-27" style="edgeStyle=none;shape=connector;rounded=0;orthogonalLoop=1;jettySize=auto;html=1;exitX=0.5;exitY=0;exitDx=0;exitDy=0;strokeColor=default;align=center;verticalAlign=middle;fontFamily=Helvetica;fontSize=11;fontColor=default;labelBackgroundColor=default;startFill=0;endArrow=none;" edge="1" parent="1" source="nPHZdOLotvNPG9Pi4xsK-10">
          <mxGeometry relative="1" as="geometry">
            <mxPoint x="140" y="420" as="targetPoint" />
          </mxGeometry>
        </mxCell>
        <mxCell id="nPHZdOLotvNPG9Pi4xsK-10" value="img" style="ellipse;whiteSpace=wrap;html=1;align=center;fontFamily=Helvetica;fontSize=11;labelBackgroundColor=none;fillColor=#fff2cc;strokeColor=#d6b656;" vertex="1" parent="1">
          <mxGeometry x="110" y="510" width="100" height="40" as="geometry" />
        </mxCell>
        <mxCell id="nPHZdOLotvNPG9Pi4xsK-26" style="edgeStyle=none;shape=connector;rounded=0;orthogonalLoop=1;jettySize=auto;html=1;exitX=1;exitY=0;exitDx=0;exitDy=0;strokeColor=default;align=center;verticalAlign=middle;fontFamily=Helvetica;fontSize=11;fontColor=default;labelBackgroundColor=default;startFill=0;endArrow=none;" edge="1" parent="1" source="nPHZdOLotvNPG9Pi4xsK-11">
          <mxGeometry relative="1" as="geometry">
            <mxPoint x="140" y="420" as="targetPoint" />
          </mxGeometry>
        </mxCell>
        <mxCell id="nPHZdOLotvNPG9Pi4xsK-11" value="password" style="ellipse;whiteSpace=wrap;html=1;align=center;fontFamily=Helvetica;fontSize=11;labelBackgroundColor=none;fillColor=#fff2cc;strokeColor=#d6b656;" vertex="1" parent="1">
          <mxGeometry x="-10" y="490" width="100" height="40" as="geometry" />
        </mxCell>
        <mxCell id="nPHZdOLotvNPG9Pi4xsK-25" style="edgeStyle=none;shape=connector;rounded=0;orthogonalLoop=1;jettySize=auto;html=1;exitX=1;exitY=0.5;exitDx=0;exitDy=0;entryX=0.5;entryY=1;entryDx=0;entryDy=0;strokeColor=default;align=center;verticalAlign=middle;fontFamily=Helvetica;fontSize=11;fontColor=default;labelBackgroundColor=default;startFill=0;endArrow=none;" edge="1" parent="1" source="nPHZdOLotvNPG9Pi4xsK-12" target="nPHZdOLotvNPG9Pi4xsK-2">
          <mxGeometry relative="1" as="geometry" />
        </mxCell>
        <mxCell id="nPHZdOLotvNPG9Pi4xsK-12" value="email" style="ellipse;whiteSpace=wrap;html=1;align=center;fontFamily=Helvetica;fontSize=11;labelBackgroundColor=none;fillColor=#fff2cc;strokeColor=#d6b656;" vertex="1" parent="1">
          <mxGeometry x="-80" y="420" width="100" height="40" as="geometry" />
        </mxCell>
        <mxCell id="nPHZdOLotvNPG9Pi4xsK-24" style="edgeStyle=none;shape=connector;rounded=0;orthogonalLoop=1;jettySize=auto;html=1;exitX=1;exitY=0.5;exitDx=0;exitDy=0;entryX=0.5;entryY=0;entryDx=0;entryDy=0;strokeColor=default;align=center;verticalAlign=middle;fontFamily=Helvetica;fontSize=11;fontColor=default;labelBackgroundColor=default;startFill=0;endArrow=none;" edge="1" parent="1" source="nPHZdOLotvNPG9Pi4xsK-13" target="nPHZdOLotvNPG9Pi4xsK-2">
          <mxGeometry relative="1" as="geometry" />
        </mxCell>
        <mxCell id="nPHZdOLotvNPG9Pi4xsK-13" value="phone_number" style="ellipse;whiteSpace=wrap;html=1;align=center;fontFamily=Helvetica;fontSize=11;labelBackgroundColor=none;fillColor=#fff2cc;strokeColor=#d6b656;" vertex="1" parent="1">
          <mxGeometry x="-80" y="350" width="100" height="40" as="geometry" />
        </mxCell>
        <mxCell id="nPHZdOLotvNPG9Pi4xsK-28" style="edgeStyle=none;shape=connector;rounded=0;orthogonalLoop=1;jettySize=auto;html=1;exitX=0.5;exitY=1;exitDx=0;exitDy=0;entryX=0.5;entryY=0;entryDx=0;entryDy=0;strokeColor=default;align=center;verticalAlign=middle;fontFamily=Helvetica;fontSize=11;fontColor=default;labelBackgroundColor=default;startFill=0;endArrow=none;" edge="1" parent="1" source="nPHZdOLotvNPG9Pi4xsK-14" target="nPHZdOLotvNPG9Pi4xsK-1">
          <mxGeometry relative="1" as="geometry" />
        </mxCell>
        <mxCell id="nPHZdOLotvNPG9Pi4xsK-14" value="pet_id" style="ellipse;whiteSpace=wrap;html=1;align=center;fontStyle=4;fontFamily=Helvetica;fontSize=11;labelBackgroundColor=none;fillColor=#ffe6cc;strokeColor=#d79b00;" vertex="1" parent="1">
          <mxGeometry x="500" y="230" width="100" height="40" as="geometry" />
        </mxCell>
        <mxCell id="nPHZdOLotvNPG9Pi4xsK-33" style="edgeStyle=none;shape=connector;rounded=0;orthogonalLoop=1;jettySize=auto;html=1;exitX=0;exitY=0;exitDx=0;exitDy=0;strokeColor=default;align=center;verticalAlign=middle;fontFamily=Helvetica;fontSize=11;fontColor=default;labelBackgroundColor=default;startFill=0;endArrow=none;" edge="1" parent="1" source="nPHZdOLotvNPG9Pi4xsK-15">
          <mxGeometry relative="1" as="geometry">
            <mxPoint x="680" y="400" as="targetPoint" />
          </mxGeometry>
        </mxCell>
        <mxCell id="nPHZdOLotvNPG9Pi4xsK-15" value="img" style="ellipse;whiteSpace=wrap;html=1;align=center;fontFamily=Helvetica;fontSize=11;labelBackgroundColor=none;fillColor=#fff2cc;strokeColor=#d6b656;" vertex="1" parent="1">
          <mxGeometry x="770" y="470" width="100" height="40" as="geometry" />
        </mxCell>
        <mxCell id="nPHZdOLotvNPG9Pi4xsK-32" style="edgeStyle=none;shape=connector;rounded=0;orthogonalLoop=1;jettySize=auto;html=1;exitX=0;exitY=0.5;exitDx=0;exitDy=0;entryX=1;entryY=0.5;entryDx=0;entryDy=0;strokeColor=default;align=center;verticalAlign=middle;fontFamily=Helvetica;fontSize=11;fontColor=default;labelBackgroundColor=default;startFill=0;endArrow=none;" edge="1" parent="1" source="nPHZdOLotvNPG9Pi4xsK-16" target="nPHZdOLotvNPG9Pi4xsK-1">
          <mxGeometry relative="1" as="geometry" />
        </mxCell>
        <mxCell id="nPHZdOLotvNPG9Pi4xsK-16" value="species" style="ellipse;whiteSpace=wrap;html=1;align=center;fontFamily=Helvetica;fontSize=11;labelBackgroundColor=none;fillColor=#fff2cc;strokeColor=#d6b656;" vertex="1" parent="1">
          <mxGeometry x="800" y="390" width="100" height="40" as="geometry" />
        </mxCell>
        <mxCell id="nPHZdOLotvNPG9Pi4xsK-31" style="edgeStyle=none;shape=connector;rounded=0;orthogonalLoop=1;jettySize=auto;html=1;exitX=0;exitY=0.5;exitDx=0;exitDy=0;entryX=0.5;entryY=0;entryDx=0;entryDy=0;strokeColor=default;align=center;verticalAlign=middle;fontFamily=Helvetica;fontSize=11;fontColor=default;labelBackgroundColor=default;startFill=0;endArrow=none;" edge="1" parent="1" source="nPHZdOLotvNPG9Pi4xsK-17" target="nPHZdOLotvNPG9Pi4xsK-1">
          <mxGeometry relative="1" as="geometry" />
        </mxCell>
        <mxCell id="nPHZdOLotvNPG9Pi4xsK-17" value="adoption_year" style="ellipse;whiteSpace=wrap;html=1;align=center;fontFamily=Helvetica;fontSize=11;labelBackgroundColor=none;fillColor=#fff2cc;strokeColor=#d6b656;" vertex="1" parent="1">
          <mxGeometry x="790" y="320" width="100" height="40" as="geometry" />
        </mxCell>
        <mxCell id="nPHZdOLotvNPG9Pi4xsK-30" style="edgeStyle=none;shape=connector;rounded=0;orthogonalLoop=1;jettySize=auto;html=1;exitX=0;exitY=1;exitDx=0;exitDy=0;entryX=0.5;entryY=0;entryDx=0;entryDy=0;strokeColor=default;align=center;verticalAlign=middle;fontFamily=Helvetica;fontSize=11;fontColor=default;labelBackgroundColor=default;startFill=0;endArrow=none;" edge="1" parent="1" source="nPHZdOLotvNPG9Pi4xsK-18" target="nPHZdOLotvNPG9Pi4xsK-1">
          <mxGeometry relative="1" as="geometry" />
        </mxCell>
        <mxCell id="nPHZdOLotvNPG9Pi4xsK-18" value="description" style="ellipse;whiteSpace=wrap;html=1;align=center;fontFamily=Helvetica;fontSize=11;labelBackgroundColor=none;fillColor=#fff2cc;strokeColor=#d6b656;" vertex="1" parent="1">
          <mxGeometry x="760" y="260" width="100" height="40" as="geometry" />
        </mxCell>
        <mxCell id="nPHZdOLotvNPG9Pi4xsK-29" style="edgeStyle=none;shape=connector;rounded=0;orthogonalLoop=1;jettySize=auto;html=1;exitX=0.5;exitY=1;exitDx=0;exitDy=0;strokeColor=default;align=center;verticalAlign=middle;fontFamily=Helvetica;fontSize=11;fontColor=default;labelBackgroundColor=default;startFill=0;endArrow=none;" edge="1" parent="1" source="nPHZdOLotvNPG9Pi4xsK-19">
          <mxGeometry relative="1" as="geometry">
            <mxPoint x="630" y="380" as="targetPoint" />
          </mxGeometry>
        </mxCell>
        <mxCell id="nPHZdOLotvNPG9Pi4xsK-19" value="name" style="ellipse;whiteSpace=wrap;html=1;align=center;fontFamily=Helvetica;fontSize=11;labelBackgroundColor=none;fillColor=#fff2cc;strokeColor=#d6b656;" vertex="1" parent="1">
          <mxGeometry x="640" y="210" width="100" height="40" as="geometry" />
        </mxCell>
      </root>
    </mxGraphModel>
  </diagram>
</mxfile>
